<svg xmlns="http://www.w3.org/2000/svg" viewBox="0 0 400 300">
  <!-- Background -->
  <rect width="400" height="300" fill="linear-gradient(135deg, #f7fafc 0%, #edf2f7 100%)"/>
  
  <!-- Saudi Road Environment -->
  <rect x="0" y="220" width="400" height="80" fill="#4a5568"/>
  <rect x="0" y="240" width="400" height="4" fill="#ffd700" opacity="0.8"/>
  
  <!-- Modern Saudi Vehicles -->
  <!-- Vehicle 1 - SUV (Popular in Saudi) -->
  <rect x="50" y="180" width="80" height="40" fill="#1a202c" rx="5"/>
  <rect x="55" y="185" width="70" height="20" fill="#4a5568" rx="3"/>
  <circle cx="65" cy="215" r="10" fill="#2d3748"/>
  <circle cx="115" cy="215" r="10" fill="#2d3748"/>
  <circle cx="65" cy="215" r="6" fill="#a0aec0"/>
  <circle cx="115" cy="215" r="6" fill="#a0aec0"/>
  
  <!-- Vehicle 2 - Sedan -->
  <rect x="160" y="185" width="75" height="35" fill="#2d3748" rx="5"/>
  <rect x="165" y="190" width="65" height="18" fill="#4a5568" rx="3"/>
  <circle cx="175" cy="215" r="9" fill="#1a202c"/>
  <circle cx="220" cy="215" r="9" fill="#1a202c"/>
  <circle cx="175" cy="215" r="5" fill="#a0aec0"/>
  <circle cx="220" cy="215" r="5" fill="#a0aec0"/>
  
  <!-- Vehicle 3 - Truck -->
  <rect x="270" y="175" width="90" height="45" fill="#2d3748" rx="5"/>
  <rect x="275" y="180" width="35" height="25" fill="#4a5568" rx="3"/>
  <rect x="315" y="185" width="40" height="20" fill="#4a5568" rx="3"/>
  <circle cx="290" cy="215" r="12" fill="#1a202c"/>
  <circle cx="330" cy="215" r="12" fill="#1a202c"/>
  <circle cx="350" cy="215" r="12" fill="#1a202c"/>
  
  <!-- Tracking Lines -->
  <path d="M90 150 Q90 120 90 90" stroke="#4fd1c7" stroke-width="2" fill="none" marker-end="url(#arrowhead)"/>
  <path d="M197 150 Q197 110 197 80" stroke="#48bb78" stroke-width="2" fill="none"/>
  <path d="M320 150 Q320 100 320 70" stroke="#ed8936" stroke-width="2" fill="none"/>
  
  <!-- Management Dashboard -->
  <rect x="50" y="40" width="300" height="80" fill="white" rx="8" stroke="#e2e8f0" stroke-width="2"/>
  <text x="200" y="25" font-family="Arial" font-size="16" fill="#2d3748" text-anchor="middle" font-weight="bold">ุฅุฏุงุฑุฉ ุงููุฑูุจุงุช</text>
  
  <!-- Status Indicators -->
  <circle cx="80" cy="70" r="6" fill="#48bb78"/>
  <text x="95" y="75" font-family="Arial" font-size="10" fill="#2d3748">ูุชุงุญ</text>
  
  <circle cx="160" cy="70" r="6" fill="#4299e1"/>
  <text x="175" y="75" font-family="Arial" font-size="10" fill="#2d3748">ูู ุงูุฎุฏูุฉ</text>
  
  <circle cx="250" cy="70" r="6" fill="#ed8936"/>
  <text x="265" y="75" font-family="Arial" font-size="10" fill="#2d3748">ุตูุงูุฉ</text>
  
  <!-- GPS/Location Icons -->
  <g transform="translate(300, 60)">
    <circle r="15" fill="#4fd1c7" opacity="0.3">
      <animate attributeName="r" values="15;20;15" dur="2s" repeatCount="indefinite"/>
    </circle>
    <text x="0" y="4" font-family="Arial" font-size="12" fill="#4fd1c7" text-anchor="middle">๐</text>
  </g>
  
  <!-- Saudi License Plate Style -->
  <rect x="65" y="230" width="50" height="15" fill="white" stroke="#2d3748" stroke-width="1" rx="2"/>
  <text x="90" y="240" font-family="Arial" font-size="8" fill="#2d3748" text-anchor="middle">ุฃ ุจ ุฌ ูกูขูฃ</text>
  
  <defs>
    <marker id="arrowhead" markerWidth="10" markerHeight="7" refX="9" refY="3.5" orient="auto">
      <polygon points="0 0, 10 3.5, 0 7" fill="#4fd1c7"/>
    </marker>
  </defs>
</svg>