<?xml version="1.0" encoding="UTF-8" standalone="no"?>
<svg width="800" height="400" viewBox="0 0 800 400" xmlns="http://www.w3.org/2000/svg">
  <g id="vehicle-views" fill="none" stroke="#333" stroke-width="2">
    <!-- Front View -->
    <g id="front-view" transform="translate(150, 100)">
      <rect x="30" y="10" width="140" height="100" rx="5" />
      <rect x="15" y="50" width="15" height="40" rx="2" />
      <rect x="170" y="50" width="15" height="40" rx="2" />
      <rect x="60" y="40" width="80" height="30" rx="2" />
      <rect x="50" y="80" width="100" height="15" rx="2" />
    </g>
    
    <!-- Side View (Right) -->
    <g id="side-view-right" transform="translate(500, 100)">
      <path d="M10,50 L60,10 L200,10 L230,50 L230,110 L10,110 Z" />
      <circle cx="60" cy="110" r="20" />
      <circle cx="180" cy="110" r="20" />
      <rect x="70" y="30" width="40" height="40" rx="2" />
      <rect x="170" y="30" width="15" height="40" rx="2" />
    </g>
    
    <!-- Back View -->
    <g id="back-view" transform="translate(150, 250)">
      <rect x="30" y="10" width="140" height="100" rx="5" />
      <rect x="15" y="50" width="15" height="40" rx="2" />
      <rect x="170" y="50" width="15" height="40" rx="2" />
      <rect x="60" y="20" width="80" height="30" rx="2" />
      <rect x="50" y="80" width="100" height="15" rx="2" />
    </g>
    
    <!-- Side View (Left) -->
    <g id="side-view-left" transform="translate(500, 250)">
      <path d="M10,50 L60,10 L200,10 L230,50 L230,110 L10,110 Z" />
      <circle cx="60" cy="110" r="20" />
      <circle cx="180" cy="110" r="20" />
      <rect x="70" y="30" width="40" height="40" rx="2" />
      <rect x="30" y="30" width="15" height="40" rx="2" />
    </g>
  </g>
</svg>